<svg xmlns="http://www.w3.org/2000/svg" width="56" height="56" viewBox="0 0 56 56">
  <style>
    .p {
      fill: #222;
    }
    @media (prefers-color-scheme: dark) {
      .p {
        fill: #DDD;
      }
    }
  </style>
  <g fill="none" fill-rule="evenodd" transform="translate(15 11)">
    <path class="p" d="M12.7822,19.3841 C9.1432,19.3841 6.1822,16.4221 6.1822,12.7821 C6.1822,9.1431 9.1432,6.1821 12.7822,6.1821 C16.4212,6.1821 19.3822,9.1431 19.3822,12.7821 C19.3822,16.4221 16.4212,19.3841 12.7822,19.3841 M12.7822,0.0001 C5.8282,0.0001 0.1642,5.5841 0.0142,12.5031 L0.0002,12.5031 L0.0002,35.2851 L6.1822,35.2851 L6.1822,23.7091 C8.1122,24.8791 10.3652,25.5661 12.7822,25.5661 C19.8302,25.5661 25.5642,19.8311 25.5642,12.7821 C25.5642,5.7351 19.8302,0.0001 12.7822,0.0001"/>
    <path fill="#CEAD78" d="M12.7616,9.3802 C10.9216,9.3802 9.3806,10.9642 9.3806,12.8042 C9.3806,14.6452 10.9216,16.1852 12.7616,16.1852 C14.6446,16.1852 16.1836,14.6452 16.1836,12.8042 C16.1836,10.9642 14.6446,9.3802 12.7616,9.3802"/>
  </g>
</svg>
