<svg id="Layer_1" data-name="Layer 1" xmlns="http://www.w3.org/2000/svg" viewBox="0 0 27 27"><defs><style>.cls-1{fill:#ef4025;}</style></defs><title>Heart</title><path class="cls-1" d="M24.91,3.69a7,7,0,0,0-10.16,0L13.5,5l-1.25-1.3A7,7,0,0,0,7.16,1.5h0A7,7,0,0,0,2.08,3.67a7.54,7.54,0,0,0,0,10.41C5.7,18,9.2,21.5,12.76,25.2a1,1,0,0,0,1.45,0l10.7-11.1A7.53,7.53,0,0,0,24.91,3.69Zm-1.44,9-10,10.35-10-10.35a5.54,5.54,0,0,1,0-7.65A5.06,5.06,0,0,1,7.16,3.47a5.06,5.06,0,0,1,3.64,1.59l2,2L13.5,7.88l0.72-.76,2-2a5,5,0,0,1,7.29,0A5.54,5.54,0,0,1,23.47,12.71Z"/></svg>