<svg version="1.1" id="Layer_1" xmlns="http://www.w3.org/2000/svg" xmlns:xlink="http://www.w3.org/1999/xlink" x="0px" y="0px"
	 viewBox="0 0 400.5 137.4" style="enable-background:new 0 0 400.5 137.4;" xml:space="preserve">
<style type="text/css">
	.st0{fill:#FFFFFF;}
</style>
<path class="st0" d="M51.2,30.6c13.1,0,25.1,7.1,23.5,24.8c-2,21-13.3,32.6-31,32.7H28.2c-2.2,0-3.3,1.8-3.9,5.5l-3,19.1
	c-0.5,2.9-1.9,4.3-4.1,4.3H2.7c-2.3,0-3.1-1.5-2.6-4.8l11.9-76.4c0.6-3.8,2-5.2,4.6-5.2H51.2L51.2,30.6z M27.7,71.5h11.7
	c7.4-0.3,12.2-5.4,12.7-14.5c0.3-5.7-3.5-9.7-9.6-9.7l-11.1,0L27.7,71.5L27.7,71.5z M113.9,111.1c1.3-1.2,2.7-1.8,2.5-0.3l-0.5,3.5
	c-0.2,1.9,0.5,2.8,2.2,2.8h12.8c2.2,0,3.2-0.9,3.7-4.2l7.9-49.6c0.4-2.5-0.2-3.7-2.1-3.7h-14.1c-1.3,0-1.9,0.7-2.2,2.6l-0.5,3
	c-0.3,1.6-1,1.9-1.7,0.3c-2.4-5.7-8.5-8.2-17-8C85.2,58,71.9,73,70.4,92.2c-1.1,14.9,9.6,26.6,23.6,26.6
	C104.2,118.8,108.8,115.8,113.9,111.1L113.9,111.1L113.9,111.1z M103.2,103.5c-8.5,0-14.4-6.8-13.2-15.1s9.2-15.1,17.7-15.1
	s14.4,6.8,13.2,15.1S111.7,103.5,103.2,103.5L103.2,103.5z M167.7,59.5h-13c-2.7,0-3.8,2-2.9,4.5l16.1,47.3l-15.8,22.5
	c-1.3,1.9-0.3,3.6,1.6,3.6h14.6c1.7,0.2,3.4-0.6,4.3-2.1l49.6-71.2c1.5-2.2,0.8-4.5-1.7-4.5h-13.8c-2.4,0-3.3,0.9-4.7,2.9l-20.7,30
	l-9.2-30.1C171.5,60.5,170.2,59.5,167.7,59.5L167.7,59.5z"/>
<path class="st0" d="M273.9,30.6c13.1,0,25.1,7.1,23.5,24.8c-2,21-13.2,32.6-31,32.7h-15.5c-2.2,0-3.3,1.8-3.9,5.5l-3,19.1
	c-0.5,2.9-1.9,4.3-4.1,4.3h-14.4c-2.3,0-3.1-1.5-2.6-4.8l11.9-76.5c0.6-3.8,2-5.2,4.6-5.2L273.9,30.6L273.9,30.6z M250.4,71.5h11.8
	c7.3-0.3,12.2-5.4,12.7-14.5c0.3-5.7-3.5-9.7-9.6-9.7l-11.1,0L250.4,71.5L250.4,71.5z M336.6,111.1c1.3-1.2,2.7-1.8,2.5-0.3
	l-0.5,3.5c-0.2,1.9,0.5,2.8,2.2,2.8h12.8c2.2,0,3.2-0.9,3.7-4.2l7.9-49.6c0.4-2.5-0.2-3.7-2.1-3.7h-14.1c-1.3,0-1.9,0.7-2.2,2.6
	l-0.5,3c-0.3,1.6-1,1.9-1.7,0.3c-2.4-5.7-8.5-8.2-17-8C307.9,58,294.5,73,293.1,92.2c-1.1,14.9,9.6,26.6,23.6,26.6
	C326.9,118.8,331.5,115.8,336.6,111.1L336.6,111.1L336.6,111.1z M325.8,103.5c-8.5,0-14.4-6.8-13.2-15.1s9.2-15.1,17.7-15.1
	s14.4,6.8,13.2,15.1S334.3,103.5,325.8,103.5L325.8,103.5z M385,117.2h-14.8c-1,0-1.8-0.7-1.8-1.7c0-0.1,0-0.2,0-0.3l13-82.4
	c0.3-1.2,1.3-2,2.5-2h14.8c1,0,1.8,0.7,1.8,1.7c0,0.1,0,0.2,0,0.3l-13,82.4C387.2,116.4,386.2,117.2,385,117.2L385,117.2z"/>
</svg>
