<?xml version="1.0" encoding="utf-8"?>
<!-- Generator: Adobe Illustrator 19.2.1, SVG Export Plug-In . SVG Version: 6.00 Build 0)  -->
<svg version="1.1" id="Layer_1" xmlns="http://www.w3.org/2000/svg" xmlns:xlink="http://www.w3.org/1999/xlink" x="0px" y="0px"
	 width="328px" height="70px" viewBox="0 0 328 70" style="enable-background:new 0 0 328 70;" xml:space="preserve">
<style type="text/css">
	.st0{fill:#EF4025;}
	.st1{fill:#0F529B;}
</style>
<circle class="st0" cx="29.948" cy="29.916" r="9.235"/>
<path class="st1" d="M239.426,18.825c-14.221,0-25.791,11.57-25.791,25.792c0,14.222,11.57,25.792,25.791,25.792
	c6.155,0,12.115-2.204,16.782-6.205c1.5-1.287,2.854-2.747,4.024-4.342l-9.372-6.876c-0.645,0.878-1.391,1.684-2.219,2.394
	c-2.562,2.195-5.834,3.405-9.215,3.405c-5.742,0-10.697-3.433-12.92-8.356h38.712v-5.812
	C265.219,30.395,253.648,18.825,239.426,18.825z M226.506,38.805c2.222-4.922,7.178-8.355,12.92-8.355
	c5.743,0,10.698,3.433,12.921,8.355H226.506z"/>
<path class="st1" d="M327.412,44.617c0-14.222-11.57-25.792-25.791-25.792c-14.223,0-25.793,11.57-25.793,25.792
	c0,14.222,11.57,25.792,25.793,25.792c6.154,0,12.114-2.204,16.778-6.203c1.503-1.288,2.859-2.75,4.029-4.346l-9.377-6.872
	c-0.642,0.877-1.387,1.681-2.216,2.391c-2.562,2.195-5.834,3.405-9.214,3.405c-5.743,0-10.699-3.433-12.921-8.356h38.712V44.617z
	 M288.699,38.805c2.222-4.922,7.178-8.355,12.921-8.355c5.742,0,10.697,3.433,12.92,8.355H288.699z"/>
<circle class="st1" cx="80.142" cy="11.356" r="8.262"/>
<path class="st1" d="M29.943,0.562c-16.187,0-29.355,13.168-29.355,29.355v39.419H14.15V54.641c4.564,2.925,9.981,4.63,15.793,4.63
	c16.186,0,29.354-13.168,29.354-29.354C59.297,13.73,46.129,0.562,29.943,0.562z M29.943,45.709
	c-8.708,0-15.793-7.084-15.793-15.792c0-8.708,7.085-15.793,15.793-15.793c8.708,0,15.792,7.085,15.792,15.793
	C45.735,38.625,38.651,45.709,29.943,45.709z"/>
<rect x="73.024" y="25.698" class="st1" width="14.235" height="43.74"/>
<path class="st1" d="M127.727,58.293c-7.773,0-12.737-6.18-12.737-13.861v-0.187c0-7.399,5.058-13.674,12.174-13.674
	c5.058,0,8.241,2.154,11.426,5.526l8.709-9.365c-4.682-5.245-10.582-8.428-20.041-8.428c-15.359,0-26.317,11.8-26.317,26.128v0.188
	c0,14.329,11.052,25.941,26.129,25.941c10.021,0,15.64-3.839,20.51-9.179l-8.335-8.428
	C135.782,56.233,132.504,58.293,127.727,58.293z"/>
<polygon class="st1" points="207.532,19.24 190.487,19.24 173.817,37.503 173.817,1.072 159.582,1.072 159.582,69.438 
	173.817,69.438 173.817,54.172 178.78,48.928 191.892,69.438 208.188,69.438 188.427,39.001 "/>
</svg>
