<svg xmlns="http://www.w3.org/2000/svg" xmlns:xlink="http://www.w3.org/1999/xlink" width="100" height="24" viewBox="0 0 100 24">
  <defs>
    <polygon id="logo-a" points="0 0 100 0 100 23.455 0 23.455"/>
  </defs>
  <g fill="none" fill-rule="evenodd">
    <mask id="logo-b" fill="#fff">
      <use xlink:href="#logo-a"/>
    </mask>
    <path fill="#0F529B" d="M22.6673333 23.0974L27.274 23.0974 27.274 7.20206667 22.6673333 7.20206667 22.6673333 23.0974zM24.9706667-.0006C26.4633333-.0006 27.6633333 1.20006667 27.6633333 2.69273333 27.6633333 4.15273333 26.4633333 5.35273333 24.9706667 5.35273333 23.4786667 5.35273333 22.3106667 4.15273333 22.3106667 2.69273333 22.3106667 1.20006667 23.4786667-.0006 24.9706667-.0006L24.9706667-.0006zM46.6724667 20.0810667C45.0504667 22.2224 42.7798 23.4550667 39.6978 23.4550667 34.9291333 23.4550667 31.2958 19.9184 31.2958 15.1504 31.2958 10.3810667 34.9291333 6.8124 39.6978 6.8124 42.7144667 6.8124 44.6611333 8.1104 46.3484667 9.99173333L43.2338 13.0090667C42.3251333 11.9057333 41.3198 11.1597333 39.8598 11.1597333 37.6864667 11.1597333 35.9998 12.8144 35.9998 15.1504 35.9998 17.4857333 37.6864667 19.1397333 39.8598 19.1397333 41.4498 19.1397333 42.5524667 18.3617333 43.5584667 17.0637333L46.6724667 20.0810667z" mask="url(#logo-b)"/>
    <polygon fill="#0F529B" points="50.271 .39 54.878 .39 54.878 12.23 59.29 7.202 65.097 7.202 59.225 13.755 65.356 23.098 59.744 23.098 55.949 17.064 54.878 18.232 54.878 23.098 50.271 23.098" mask="url(#logo-b)"/>
    <path fill="#0F529B" d="M71.0650667 13.2354L76.7744 13.2354C76.6770667 11.9060667 75.6064 10.8674 74.0817333 10.8674 72.3624 10.8674 71.3570667 11.9380667 71.0650667 13.2354L71.0650667 13.2354zM70.8377333 16.3180667C71.0970667 17.9720667 72.3624 19.2374 74.4064 19.2374 76.0610667 19.2374 77.3264 18.6207333 78.2990667 17.3880667L81.3484 20.2427333C79.9537333 21.9954 77.9424 23.4547333 74.5364 23.4547333 69.7670667 23.4547333 66.1664 20.2427333 66.1664 15.2474 66.1664 10.4460667 69.3777333 6.81206667 73.9844 6.81206667 79.1097333 6.81206667 81.6410667 10.9327333 81.6410667 14.9554 81.6410667 15.5067333 81.6084 16.3180667 81.6084 16.3180667L70.8377333 16.3180667zM89.4241333 13.2354L95.1334667 13.2354C95.0361333 11.9060667 93.9661333 10.8674 92.4414667 10.8674 90.7214667 10.8674 89.7161333 11.9380667 89.4241333 13.2354L89.4241333 13.2354zM89.1974667 16.3180667C89.4568 17.9720667 90.7214667 19.2374 92.7654667 19.2374 94.4201333 19.2374 95.6854667 18.6207333 96.6588 17.3880667L99.7074667 20.2427333C98.3128 21.9954 96.3014667 23.4547333 92.8954667 23.4547333 88.1268 23.4547333 84.5254667 20.2427333 84.5254667 15.2474 84.5254667 10.4460667 87.7374667 6.81206667 92.3441333 6.81206667 97.4694667 6.81206667 100.000133 10.9327333 100.000133 14.9554 100.000133 15.5067333 99.9674667 16.3180667 99.9674667 16.3180667L89.1974667 16.3180667z" mask="url(#logo-b)"/>
    <path fill="#0C529A" d="M9.48986667,4.891 C6.8052,4.891 4.62053333,7.075 4.62053333,9.76033333 C4.62053333,12.445 6.8052,14.6296667 9.48986667,14.6296667 C12.1745333,14.6296667 14.3592,12.445 14.3592,9.76033333 C14.3592,7.075 12.1745333,4.891 9.48986667,4.891 M9.48986667,19.2496667 C4.2572,19.2496667 -0.000133333333,14.993 -0.000133333333,9.76033333 C-0.000133333333,4.52766667 4.2572,0.270333333 9.48986667,0.270333333 C14.7225333,0.270333333 18.9798667,4.52766667 18.9798667,9.76033333 C18.9798667,14.993 14.7225333,19.2496667 9.48986667,19.2496667" mask="url(#logo-b)"/>
    <polygon fill="#0C529A" points=".003 23.099 0 9.761 4.621 9.76 4.624 23.098" mask="url(#logo-b)"/>
    <path fill="#EE4024" d="M12.039,9.76013333 C12.039,8.3528 10.8976667,7.21146667 9.48966667,7.21146667 C8.08166667,7.21146667 6.941,8.3528 6.941,9.76013333 C6.941,11.1681333 8.08166667,12.3088 9.48966667,12.3088 C10.8976667,12.3088 12.039,11.1681333 12.039,9.76013333" mask="url(#logo-b)"/>
  </g>
</svg>
