<svg xmlns="http://www.w3.org/2000/svg" width="130" height="42" viewBox="0 0 130 42">
  <defs>
    <polygon points="0 0 129.2 0 129.2 41.5 0 41.5"/>
  </defs>
  <g fill="none">
      <g transform="translate(-135 -30)translate(135 30)">
        <mask fill="white">
          <use xlink:href="#path-1"/>
        </mask>
        <path d="M28.1 33.5L34.2 33.5 34.2 11.1 28.1 11.1 28.1 33.5ZM31.1 0C33.2 0 34.9 1.7 34.9 3.8 34.9 5.8 33.2 7.5 31.1 7.5 29.1 7.5 27.4 5.8 27.4 3.8 27.4 1.7 29.1 0 31.1 0L31.1 0Z" mask="url(#mask-2)" fill="#1D382D"/>
        <path d="M43.2 22.3C43.2 26.3 45.8 28.6 48.9 28.6 52 28.6 53.5 26.5 54 24.8L59.4 26.6C58.4 30.3 54.9 34.1 48.9 34.1 42.3 34.1 37.1 29.1 37.1 22.3 37.1 15.4 42.2 10.4 48.7 10.4 54.8 10.4 58.3 14.2 59.2 18L53.8 19.8C53.3 17.9 51.9 16 48.9 16 45.8 16 43.2 18.2 43.2 22.3" mask="url(#mask-2)" fill="#1D382D"/>
        <polygon mask="url(#mask-2)" points="74.7 20.5 83.9 33.5 76.4 33.5 70.5 24.9 68 27.5 68 33.5 62 33.5 62 0.5 68 0.5 68 19.4 75.8 11.1 83.7 11.1" fill="#1D382D"/>
        <path d="M99 19.7C98.9 17.5 97.4 15.3 94 15.3 90.9 15.3 89.1 17.7 89 19.7L99 19.7ZM104.6 27C103.5 30.9 99.9 34.1 94.4 34.1 88.3 34.1 82.9 29.7 82.9 22.2 82.9 15 88.2 10.4 93.9 10.4 100.8 10.4 104.9 14.8 104.9 22 104.9 22.9 104.9 23.8 104.9 23.9L88.9 23.9C89 26.8 91.5 29 94.5 29 97.3 29 98.9 27.5 99.6 25.5L104.6 27Z" mask="url(#mask-2)" fill="#1D382D"/>
        <path d="M123.2 19.7C123.1 17.5 121.7 15.3 118.2 15.3 115.1 15.3 113.4 17.7 113.2 19.7L123.2 19.7ZM128.9 27C127.7 30.9 124.2 34.1 118.7 34.1 112.5 34.1 107.1 29.7 107.1 22.2 107.1 15 112.4 10.4 118.1 10.4 125 10.4 129.2 14.8 129.2 22 129.2 22.9 129.1 23.8 129.1 23.9L113.1 23.9C113.2 26.8 115.7 29 118.7 29 121.5 29 123.1 27.5 123.8 25.5L128.9 27Z" mask="url(#mask-2)" fill="#1D382D"/>
        <path d="M12.6 28.3C9 28.3 6 25.3 6 21.7 6 18 9 15.1 12.6 15.1 16.2 15.1 19.2 18 19.2 21.7 19.2 25.3 16.2 28.3 12.6 28.3M12.6 9.1C5.6 9.1 0 14.7 0 21.7L0 41.5 6 41.5 6 32.4C7.9 33.5 10.2 34.2 12.6 34.2 19.5 34.2 25.2 28.6 25.2 21.7 25.2 14.7 19.5 9.1 12.6 9.1" mask="url(#mask-2)" fill="#1D382D"/>
        <path d="M15.9 21.7C15.9 23.5 14.4 24.9 12.6 24.9 10.8 24.9 9.3 23.5 9.3 21.7 9.3 19.8 10.8 18.4 12.6 18.4 14.4 18.4 15.9 19.8 15.9 21.7" mask="url(#mask-2)" fill="#E59E79"/>
      </g>
  </g>
</svg>