<svg xmlns="http://www.w3.org/2000/svg" xmlns:xlink="http://www.w3.org/1999/xlink" width="130" height="43" viewBox="0 0 130 43">
  <defs>
    <polygon id="pickee_logo-a" points=".205 .188 7.169 .188 7.169 7.154 .205 7.154"/>
    <polygon id="pickee_logo-c" points="0 41.925 129.755 41.925 129.755 .916 0 .916"/>
  </defs>
  <g fill="none" fill-rule="evenodd">
    <g transform="translate(26.55 .728)">
      <mask id="pickee_logo-b" fill="#fff">
        <use xlink:href="#pickee_logo-a"/>
      </mask>
      <path fill="#222" d="M3.66508451,0.187584507 C1.781,0.187584507 0.204521127,1.80892254 0.204521127,3.69209155 C0.204521127,5.57617606 1.781,7.15357042 3.66508451,7.15357042 C5.59311268,7.15357042 7.16867606,5.57617606 7.16867606,3.69209155 C7.16867606,1.80892254 5.59311268,0.187584507 3.66508451,0.187584507" mask="url(#pickee_logo-b)"/>
    </g>
    <mask id="pickee_logo-d" fill="#fff">
      <use xlink:href="#pickee_logo-c"/>
    </mask>
    <polygon fill="#222" points="27.411 32.413 33.062 32.413 33.062 10.509 27.411 10.509" mask="url(#pickee_logo-d)"/>
    <path fill="#222" d="M48.6135915,27.4192887 C45.2409155,27.4192887 42.7434507,24.9218239 42.7434507,21.4612606 C42.7434507,17.9567535 45.2409155,15.4592887 48.6135915,15.4592887 C50.8483099,15.4592887 52.7323944,16.5990775 53.6085211,18.3952746 L58.4716197,15.5471761 C56.674507,12.1745 52.9502817,9.89583803 48.6575352,9.89583803 C41.9991549,9.89583803 37.0921127,14.9337958 37.0921127,21.4612606 C37.0921127,27.9887254 41.9991549,33.0266831 48.6575352,33.0266831 C52.9502817,33.0266831 56.674507,30.7489366 58.5576761,27.3314014 L53.6515493,24.528162 C52.7754225,26.3252746 50.8922535,27.4192887 48.6135915,27.4192887" mask="url(#pickee_logo-d)"/>
    <polygon fill="#222" points="81.473 10.509 74.725 10.509 67.191 20.146 67.191 1.748 61.54 1.748 61.54 32.413 67.191 32.413 67.191 22.469 75.164 32.413 81.735 32.413 72.667 21.33" mask="url(#pickee_logo-d)"/>
    <path fill="#222" d="M87.6530493 19.4029577C88.3103732 16.5988028 90.3693169 14.9783803 93.3913592 14.9783803 95.7579085 14.9783803 98.1226268 16.248169 98.8238944 19.4029577L87.6530493 19.4029577zM93.3913592 9.89556338C86.5132606 9.89556338 81.8259366 14.9344366 81.8259366 21.4619014 81.8259366 27.9884507 86.4693169 33.0264085 93.8298803 33.0264085 98.0347394 33.0264085 101.321359 31.3190141 103.379387 28.3390845L98.8238944 25.7116197C97.8598803 26.9814085 96.1076268 27.9005634 93.9177676 27.9005634 90.937838 27.9005634 88.5291761 26.6747183 87.7400211 23.7835915L104.255514 23.7835915C104.387345 23.0383803 104.475232 22.293169 104.475232 21.4619014 104.475232 15.0223239 99.8748803 9.89556338 93.3913592 9.89556338L93.3913592 9.89556338zM112.932831 19.4029577C113.590155 16.5988028 115.649099 14.9783803 118.671141 14.9783803 121.03769 14.9783803 123.402408 16.248169 124.103676 19.4029577L112.932831 19.4029577zM129.755014 21.4619014C129.755014 15.0223239 125.154662 9.89556338 118.671141 9.89556338 111.793042 9.89556338 107.105718 14.9344366 107.105718 21.4619014 107.105718 27.9884507 111.749099 33.0264085 119.109662 33.0264085 123.314521 33.0264085 126.601141 31.3190141 128.659169 28.3390845L124.103676 25.7116197C123.139662 26.9814085 121.387408 27.9005634 119.197549 27.9005634 116.21762 27.9005634 113.808958 26.6747183 113.019803 23.7835915L129.535296 23.7835915C129.667127 23.0383803 129.755014 22.293169 129.755014 21.4619014L129.755014 21.4619014zM11.7020141 27.3674718C8.37053521 27.3674718 5.65976056 24.6557817 5.65976056 21.3233873 5.65976056 17.9919085 8.37053521 15.2811338 11.7020141 15.2811338 15.033493 15.2811338 17.7442676 17.9919085 17.7442676 21.3233873 17.7442676 24.6557817 15.033493 27.3674718 11.7020141 27.3674718M11.7020141 9.62155634C5.33567606 9.62155634.150323944 14.733669.013 21.0679648L.000183098592 21.0679648.000183098592 41.9247254 5.65976056 41.9247254 5.65976056 31.3269789C7.42666197 32.3981056 9.48926761 33.0270493 11.7020141 33.0270493 18.1544085 33.0270493 23.4038451 27.7766972 23.4038451 21.3233873 23.4038451 14.870993 18.1544085 9.62155634 11.7020141 9.62155634" mask="url(#pickee_logo-d)"/>
    <path fill="#CEAD78" d="M11.6831549,18.2094296 C9.99864789,18.2094296 8.58787324,19.6586549 8.58787324,21.343162 C8.58787324,23.0285845 9.99864789,24.4384437 11.6831549,24.4384437 C13.4070282,24.4384437 14.8159718,23.0285845 14.8159718,21.343162 C14.8159718,19.6586549 13.4070282,18.2094296 11.6831549,18.2094296" mask="url(#pickee_logo-d)"/>
  </g>
</svg>
